<?xml version="1.0" encoding="utf-8"?>
<!-- Generator: Adobe Illustrator 26.1.0, SVG Export Plug-In . SVG Version: 6.00 Build 0)  -->
<svg version="1.1" id="Layer_1" xmlns="http://www.w3.org/2000/svg" xmlns:xlink="http://www.w3.org/1999/xlink" x="0px" y="0px"
	 viewBox="0 0 24 24" style="enable-background:new 0 0 24 24;" xml:space="preserve">
<g id="can">
	<polygon points="7.8,4.9 16.2,4.9 17.2,6.2 17.2,20.7 6.8,20.7 6.8,6.2 	"/>
	<path d="M16,4.7H8c-0.3,0-0.5-0.2-0.5-0.5l0,0c0-0.3,0.2-0.5,0.5-0.5h8c0.3,0,0.5,0.2,0.5,0.5l0,0C16.5,4.5,16.2,4.7,16,4.7z"/>
	<path d="M15.1,1.6c-0.5-0.3-1.2-0.2-1.5,0.3l-0.5,0.7c-0.3,0.5-0.2,1.2,0.3,1.5s1.2,0.2,1.5-0.3l0.5-0.7c0.1-0.2,0.2-0.4,0.2-0.6
		C15.6,2.2,15.4,1.8,15.1,1.6z M15.3,2.8c-0.1,0.2-0.5,0.2-0.9,0C14,2.5,13.7,2.2,13.9,2c0.1-0.2,0.5-0.2,0.9,0.1
		C15.2,2.3,15.4,2.6,15.3,2.8z"/>
	<polygon points="17.2,21.2 6.8,21.2 7.7,22.6 16.3,22.6 	"/>
</g>
</svg>
